# xmcd CD database file
#
# Track frame offsets:
#	150
#	97863
#	173765
#	185167
#	198772
#	212702
#	225529
#
# Disc length: 3362 seconds
#
# Revision: 0
# Processed by: cddbd v1.5.2PL0 Copyright (c) Steve Scherf et al.
# Submitted via: CDex 1.51
#
DISCID=540d2007
DTITLE=Dexter Gordon - Kind of Gordon - Disk 09 I'll Follow you
DYEAR=1947
DGENRE=Jazz
TTITLE0=Cherokee
TTITLE1=After Hours Bop
TTITLE2=I'll Follow You
TTITLE3=Bop
TTITLE4=Ghost Of A Chance
TTITLE5=Sweet And Lovely
TTITLE6=Settin' The Pace
EXTD=YEAR: 1947
EXTT0=
EXTT1=
EXTT2=
EXTT3=
EXTT4=
EXTT5=
EXTT6=
PLAYORDER=
